<?xml version="1.0" encoding="UTF-8" standalone="no"?>
<!-- Created with Inkscape (http://www.inkscape.org/) -->

<svg
   xmlns:dc="http://purl.org/dc/elements/1.1/"
   xmlns:cc="http://creativecommons.org/ns#"
   xmlns:rdf="http://www.w3.org/1999/02/22-rdf-syntax-ns#"
   xmlns:svg="http://www.w3.org/2000/svg"
   xmlns="http://www.w3.org/2000/svg"
   xmlns:sodipodi="http://sodipodi.sourceforge.net/DTD/sodipodi-0.dtd"
   xmlns:inkscape="http://www.inkscape.org/namespaces/inkscape"
   width="212.33"
   height="55.84"
   id="svg8097"
   version="1.1"
   inkscape:version="0.48.1 "
   sodipodi:docname="Neues Dokument 3">
  <defs
     id="defs8099" />
  <sodipodi:namedview
     id="base"
     pagecolor="#ffffff"
     bordercolor="#666666"
     borderopacity="1.0"
     inkscape:pageopacity="0.0"
     inkscape:pageshadow="2"
     inkscape:zoom="4.0950461"
     inkscape:cx="106.62512"
     inkscape:cy="27.051774"
     inkscape:document-units="px"
     inkscape:current-layer="layer1"
     showgrid="false"
     fit-margin-top="0"
     fit-margin-left="0"
     fit-margin-right="0"
     fit-margin-bottom="0"
     inkscape:window-width="1024"
     inkscape:window-height="678"
     inkscape:window-x="-4"
     inkscape:window-y="-4"
     inkscape:window-maximized="1" />
  <metadata
     id="metadata8102">
    <rdf:RDF>
      <cc:Work
         rdf:about="">
        <dc:format>image/svg+xml</dc:format>
        <dc:type
           rdf:resource="http://purl.org/dc/dcmitype/StillImage" />
        <dc:title></dc:title>
      </cc:Work>
    </rdf:RDF>
  </metadata>
  <g
     inkscape:label="Ebene 1"
     inkscape:groupmode="layer"
     id="layer1"
     transform="translate(-169.11946,-440.58316)">
    <g
       id="g2532"
       transform="matrix(1.25,0,0,-1.25,191.48,477.95012)">
      <path
         d="m 0,0 c -1.016,-0.239 -2.094,-0.479 -3.171,-0.838 -2.392,-0.956 -2.512,-2.392 -2.512,-2.75 0,-0.839 0.718,-2.394 3.051,-2.394 1.734,0 4.605,1.136 5.682,3.529 C 3.649,-1.136 3.649,0.12 3.649,1.196 2.452,0.778 1.257,0.359 0,0 m -16.032,8.434 c 0.48,2.632 1.137,5.923 5.564,8.256 3.469,1.794 7.895,2.094 11.127,2.094 14.714,0 14.714,-7.598 14.714,-11.307 l 0,-16.868 c 0,-2.034 0.179,-2.572 1.077,-3.829 l -12.143,0 0,2.394 c -1.557,-1.077 -4.427,-3.112 -10.229,-3.112 -7.776,0 -11.185,4.727 -11.185,9.99 0,1.855 0.418,4.426 2.632,6.64 2.81,2.871 6.16,3.35 11.604,4.068 3.409,0.479 4.725,0.778 6.579,1.317 -0.059,2.092 -0.658,3.528 -4.186,3.528 -2.812,0 -3.59,-0.718 -4.009,-2.871 l -11.545,-0.3 z m 44.745,6.64 c 3.349,2.992 5.622,3.351 10.347,3.351 l 0,-10.409 c -0.837,0.06 -1.674,0.119 -2.511,0.119 -7.239,0 -7.359,-4.726 -7.419,-6.759 l 0,-14.596 -12.262,0 0,31.165 11.845,0 0,-2.871 z m 11.483,11.725 12.385,0 -0.123,-9.751 5.326,0 0,-6.699 -5.383,0 -0.121,-11.904 c 0,-1.195 0.061,-3.23 3.35,-3.23 0.718,0 1.495,0.118 2.213,0.239 l 0,-8.434 c -2.751,-0.358 -5.203,-0.658 -7.775,-0.658 -1.318,0 -5.684,0.059 -8.136,2.572 -2.094,2.095 -2.094,4.846 -2.094,6.399 l 0.358,31.466 z m 18.663,2.273 12.264,0 0,-14.417 c 1.136,1.376 3.53,4.427 9.929,4.427 3.53,0 6.702,-1.196 8.613,-3.11 2.574,-2.693 2.693,-6.161 2.813,-8.914 l 0,-20.278 -12.264,0 0,17.706 c -0.058,1.376 -0.118,4.427 -4.424,4.427 -4.548,0 -4.606,-3.23 -4.606,-4.666 l 0,-17.467 -12.325,0 0,42.292 z m 34.995,-11.305 12.323,0 0,-16.87 c 0,-1.853 0.06,-5.024 4.426,-5.024 4.367,0 4.427,3.409 4.487,5.502 l 0,16.392 12.382,0 0,-30.987 -11.724,0 0,4.547 c -0.42,-0.898 -0.658,-1.435 -1.555,-2.273 -2.274,-2.214 -5.503,-3.051 -8.674,-3.051 -4.907,0.059 -7.477,1.914 -8.554,3.051 -2.991,2.931 -3.051,6.938 -3.111,9.869 l 0,18.844 z m 46.957,-2.693 c 3.35,2.992 5.624,3.351 10.348,3.351 l 0,-10.409 c -0.837,0.06 -1.675,0.119 -2.513,0.119 -7.239,0 -7.356,-4.726 -7.416,-6.759 l 0,-14.596 -12.262,0 0,31.165 11.843,0"
         style="fill:#e51e26;fill-opacity:1;fill-rule:nonzero;stroke:none"
         id="path2534"
         inkscape:connector-curvature="0" />
    </g>
  </g>
</svg>
